<?xml version="1.0" standalone="no"?>
<!DOCTYPE svg PUBLIC "-//W3C//DTD SVG 1.1//EN" "http://www.w3.org/Graphics/SVG/1.1/DTD/svg11.dtd">
<svg xmlns="http://www.w3.org/2000/svg" xmlns:xlink="http://www.w3.org/1999/xlink" width="375" zoomAndPan="magnify" viewBox="0 0 375 374.999991" height="375" preserveAspectRatio="xMidYMid meet" version="1.0"><defs><clipPath id="f77fe46433"><path d="M 88.523438 89.304688 L 284.910156 89.304688 L 284.910156 285.695312 L 88.523438 285.695312 Z M 88.523438 89.304688 " clip-rule="nonzero"/></clipPath><clipPath id="d0dd0b7cef"><path d="M 186.714844 89.304688 C 132.484375 89.304688 88.523438 133.269531 88.523438 187.5 C 88.523438 241.730469 132.484375 285.695312 186.714844 285.695312 C 240.949219 285.695312 284.910156 241.730469 284.910156 187.5 C 284.910156 133.269531 240.949219 89.304688 186.714844 89.304688 Z M 186.714844 89.304688 " clip-rule="nonzero"/></clipPath><clipPath id="a929d2c481"><path d="M 69 24 L 286 24 L 286 82 L 69 82 Z M 69 24 " clip-rule="nonzero"/></clipPath><clipPath id="acca49d588"><path d="M 63.792969 19.621094 L 279.652344 -0.0078125 L 285.425781 63.480469 L 69.566406 83.109375 Z M 63.792969 19.621094 " clip-rule="nonzero"/></clipPath><clipPath id="5919a29e9f"><path d="M 63.792969 19.621094 L 279.652344 -0.0078125 L 285.425781 63.480469 L 69.566406 83.109375 Z M 63.792969 19.621094 " clip-rule="nonzero"/></clipPath><clipPath id="f736dd68a0"><path d="M 293 72 L 349 72 L 349 287 L 293 287 Z M 293 72 " clip-rule="nonzero"/></clipPath><clipPath id="7ac61f3659"><path d="M 355.472656 68.335938 L 371.742188 282.21875 L 308.921875 286.996094 L 292.65625 73.113281 Z M 355.472656 68.335938 " clip-rule="nonzero"/></clipPath><clipPath id="f791209e12"><path d="M 355.472656 68.335938 L 371.742188 282.21875 L 308.921875 286.996094 L 292.65625 73.113281 Z M 355.472656 68.335938 " clip-rule="nonzero"/></clipPath><clipPath id="d0808b3409"><path d="M 91 289 L 306 289 L 306 349 L 91 349 Z M 91 289 " clip-rule="nonzero"/></clipPath><clipPath id="08ba976297"><path d="M 311.652344 351.320312 L 98.457031 374.949219 L 91.515625 312.335938 L 304.710938 288.703125 Z M 311.652344 351.320312 " clip-rule="nonzero"/></clipPath><clipPath id="d1352ef042"><path d="M 311.652344 351.320312 L 98.457031 374.949219 L 91.515625 312.335938 L 304.710938 288.703125 Z M 311.652344 351.320312 " clip-rule="nonzero"/></clipPath><clipPath id="af826626a5"><path d="M 25 87 L 81 87 L 81 302 L 25 302 Z M 25 87 " clip-rule="nonzero"/></clipPath><clipPath id="cbe5894f7c"><path d="M 18.171875 306.097656 L 3.25 92.121094 L 66.09375 87.738281 L 81.015625 301.71875 Z M 18.171875 306.097656 " clip-rule="nonzero"/></clipPath><clipPath id="6d4a47ff27"><path d="M 18.171875 306.097656 L 3.25 92.121094 L 66.09375 87.738281 L 81.015625 301.71875 Z M 18.171875 306.097656 " clip-rule="nonzero"/></clipPath></defs><rect x="-37.5" width="450" fill="#ffffff" y="-37.499999" height="449.999989" fill-opacity="1"/><rect x="-37.5" width="450" fill="#ffffff" y="-37.499999" height="449.999989" fill-opacity="1"/><g clip-path="url(#f77fe46433)"><g clip-path="url(#d0dd0b7cef)"><path fill="#000000" d="M 88.523438 89.304688 L 284.910156 89.304688 L 284.910156 285.695312 L 88.523438 285.695312 Z M 88.523438 89.304688 " fill-opacity="1" fill-rule="nonzero"/></g></g><path fill="#153876" d="M 307.242188 140.304688 C 306.277344 153.808594 292.34375 172.761719 301.285156 194.632812 C 312.355469 221.722656 297.285156 241.5625 303.660156 244.164062 C 310.039062 246.761719 316.289062 225.925781 319.21875 213.742188 C 321.871094 202.722656 325.265625 252.890625 305.519531 273.292969 C 303.339844 275.546875 304.734375 279.320312 307.847656 279.660156 C 309.027344 279.785156 310.203125 279.351562 311.015625 278.484375 C 317.566406 271.457031 345.800781 237.558594 342.394531 178.359375 C 338.542969 111.457031 286.648438 73 286.648438 73 C 286.648438 73 309.710938 105.625 307.242188 140.304688 " fill-opacity="1" fill-rule="nonzero"/><path fill="#fbc108" d="M 234.3125 307.90625 C 220.808594 306.9375 201.859375 293.007812 179.984375 301.949219 C 152.898438 313.019531 133.054688 297.949219 130.457031 304.324219 C 127.855469 310.699219 148.695312 316.953125 160.878906 319.882812 C 171.898438 322.535156 121.730469 325.929688 101.324219 306.183594 C 99.074219 304.003906 95.300781 305.398438 94.960938 308.511719 C 94.832031 309.691406 95.265625 310.867188 96.136719 311.679688 C 103.164062 318.230469 137.0625 346.464844 196.257812 343.058594 C 263.164062 339.207031 301.621094 287.308594 301.621094 287.308594 C 301.621094 287.308594 268.996094 310.375 234.3125 307.90625 " fill-opacity="1" fill-rule="nonzero"/><path fill="#139782" d="M 66.714844 234.976562 C 67.679688 221.472656 81.613281 202.523438 72.671875 180.644531 C 61.605469 153.5625 76.667969 133.71875 70.292969 131.117188 C 63.917969 128.519531 57.667969 149.359375 54.738281 161.539062 C 52.089844 172.5625 48.691406 122.394531 68.4375 101.988281 C 70.613281 99.738281 69.226562 95.960938 66.113281 95.621094 C 64.929688 95.496094 63.753906 95.925781 62.941406 96.800781 C 56.390625 103.828125 28.15625 137.722656 31.5625 196.917969 C 35.414062 263.824219 87.308594 302.285156 87.308594 302.285156 C 87.308594 302.285156 64.242188 269.65625 66.714844 234.976562 " fill-opacity="1" fill-rule="nonzero"/><path fill="#ff3131" d="M 139.640625 67.378906 C 153.148438 68.34375 172.097656 82.277344 193.96875 73.335938 C 221.058594 62.265625 240.902344 77.332031 243.5 70.957031 C 246.101562 64.582031 225.261719 58.328125 213.078125 55.398438 C 202.058594 52.75 252.226562 49.351562 272.628906 69.097656 C 274.882812 71.277344 278.65625 69.886719 279 66.773438 C 279.125 65.59375 278.695312 64.417969 277.820312 63.605469 C 270.792969 57.050781 236.898438 28.820312 177.699219 32.226562 C 110.792969 36.074219 72.335938 87.972656 72.335938 87.972656 C 72.335938 87.972656 104.960938 64.90625 139.640625 67.378906 " fill-opacity="1" fill-rule="nonzero"/><g clip-path="url(#a929d2c481)"><g clip-path="url(#acca49d588)"><g clip-path="url(#5919a29e9f)"><path fill="#ff3131" d="M 282.847656 62.648438 C 280.960938 61.082031 279.035156 59.5625 277.074219 58.089844 C 275.113281 56.621094 273.117188 55.199219 271.085938 53.824219 C 269.054688 52.449219 266.992188 51.128906 264.894531 49.855469 C 262.800781 48.582031 260.675781 47.359375 258.519531 46.191406 C 256.363281 45.023438 254.179688 43.910156 251.972656 42.847656 C 249.761719 41.785156 247.527344 40.777344 245.265625 39.828125 C 243.007812 38.875 240.726562 37.976562 238.421875 37.136719 C 236.121094 36.296875 233.796875 35.511719 231.457031 34.785156 C 229.113281 34.058594 226.757812 33.390625 224.382812 32.777344 C 222.007812 32.167969 219.621094 31.613281 217.21875 31.121094 C 214.816406 30.625 212.402344 30.191406 209.980469 29.8125 C 207.558594 29.4375 205.128906 29.121094 202.691406 28.863281 C 200.25 28.605469 197.808594 28.410156 195.359375 28.269531 C 192.914062 28.132812 190.460938 28.054688 188.011719 28.039062 C 185.558594 28.019531 183.109375 28.0625 180.660156 28.164062 C 178.207031 28.265625 175.761719 28.429688 173.320312 28.652344 C 170.878906 28.875 168.445312 29.15625 166.015625 29.496094 C 163.589844 29.835938 161.171875 30.238281 158.761719 30.699219 C 156.355469 31.15625 153.957031 31.675781 151.574219 32.253906 C 149.191406 32.828125 146.824219 33.464844 144.472656 34.15625 C 142.121094 34.851562 139.789062 35.601562 137.472656 36.40625 C 135.15625 37.214844 132.863281 38.078125 130.589844 38.996094 C 128.316406 39.917969 126.066406 40.890625 123.84375 41.921875 C 121.617188 42.949219 119.417969 44.035156 117.246094 45.171875 C 115.074219 46.308594 112.933594 47.5 110.816406 48.742188 C 108.703125 49.984375 106.621094 51.277344 104.570312 52.621094 C 102.519531 53.964844 100.503906 55.359375 98.523438 56.800781 C 96.539062 58.246094 94.59375 59.734375 92.683594 61.273438 C 90.773438 62.8125 88.90625 64.394531 87.074219 66.023438 C 85.242188 67.65625 83.449219 69.328125 81.699219 71.046875 C 79.949219 72.761719 78.242188 74.523438 76.582031 76.324219 C 74.917969 78.125 73.296875 79.964844 71.722656 81.84375 L 69.257812 79.703125 C 70.867188 77.78125 72.519531 75.898438 74.21875 74.054688 C 75.917969 72.214844 77.660156 70.414062 79.449219 68.660156 C 81.238281 66.902344 83.066406 65.191406 84.9375 63.523438 C 86.808594 61.859375 88.722656 60.238281 90.671875 58.667969 C 92.621094 57.09375 94.609375 55.570312 96.636719 54.09375 C 98.660156 52.617188 100.722656 51.191406 102.816406 49.820312 C 104.914062 48.445312 107.042969 47.121094 109.203125 45.851562 C 111.363281 44.582031 113.550781 43.363281 115.769531 42.203125 C 117.992188 41.039062 120.238281 39.929688 122.511719 38.878906 C 124.785156 37.824219 127.085938 36.828125 129.40625 35.886719 C 131.730469 34.949219 134.074219 34.066406 136.441406 33.238281 C 138.808594 32.414062 141.191406 31.648438 143.597656 30.9375 C 146 30.230469 148.417969 29.582031 150.855469 28.992188 C 153.289062 28.402344 155.738281 27.871094 158.199219 27.402344 C 160.664062 26.929688 163.132812 26.523438 165.617188 26.171875 C 168.097656 25.824219 170.585938 25.535156 173.082031 25.308594 C 175.578125 25.082031 178.078125 24.917969 180.582031 24.8125 C 183.085938 24.707031 185.589844 24.664062 188.09375 24.683594 C 190.601562 24.699219 193.105469 24.78125 195.605469 24.921875 C 198.109375 25.0625 200.605469 25.265625 203.097656 25.527344 C 205.589844 25.792969 208.074219 26.117188 210.550781 26.5 C 213.027344 26.886719 215.492188 27.332031 217.945312 27.835938 C 220.402344 28.34375 222.839844 28.90625 225.269531 29.535156 C 227.695312 30.160156 230.105469 30.84375 232.5 31.585938 C 234.890625 32.332031 237.265625 33.132812 239.617188 33.992188 C 241.972656 34.851562 244.304688 35.769531 246.613281 36.742188 C 248.921875 37.714844 251.207031 38.746094 253.464844 39.832031 C 255.722656 40.917969 257.953125 42.058594 260.15625 43.253906 C 262.359375 44.449219 264.53125 45.699219 266.671875 47 C 268.8125 48.300781 270.921875 49.652344 272.996094 51.058594 C 275.070312 52.464844 277.113281 53.917969 279.117188 55.421875 C 281.117188 56.929688 283.085938 58.480469 285.011719 60.082031 Z M 282.847656 62.648438 " fill-opacity="1" fill-rule="nonzero"/></g></g></g><g clip-path="url(#f736dd68a0)"><g clip-path="url(#7ac61f3659)"><g clip-path="url(#f791209e12)"><path fill="#153876" d="M 309.597656 284.921875 C 311.179688 283.074219 312.710938 281.1875 314.199219 279.265625 C 315.6875 277.339844 317.128906 275.382812 318.519531 273.386719 C 319.910156 271.394531 321.253906 269.367188 322.546875 267.308594 C 323.839844 265.25 325.082031 263.160156 326.269531 261.039062 C 327.460938 258.917969 328.597656 256.769531 329.683594 254.59375 C 330.769531 252.417969 331.800781 250.21875 332.777344 247.992188 C 333.753906 245.765625 334.675781 243.515625 335.546875 241.242188 C 336.414062 238.972656 337.222656 236.679688 337.976562 234.371094 C 338.734375 232.058594 339.429688 229.730469 340.074219 227.382812 C 340.714844 225.039062 341.296875 222.679688 341.824219 220.304688 C 342.347656 217.929688 342.816406 215.542969 343.222656 213.148438 C 343.632812 210.75 343.980469 208.34375 344.273438 205.929688 C 344.5625 203.515625 344.796875 201.097656 344.96875 198.671875 C 345.140625 196.246094 345.253906 193.816406 345.308594 191.386719 C 345.359375 188.957031 345.355469 186.527344 345.289062 184.09375 C 345.222656 181.664062 345.097656 179.238281 344.914062 176.8125 C 344.730469 174.386719 344.484375 171.96875 344.183594 169.554688 C 343.878906 167.144531 343.519531 164.738281 343.097656 162.34375 C 342.675781 159.949219 342.199219 157.566406 341.660156 155.195312 C 341.125 152.824219 340.527344 150.46875 339.875 148.125 C 339.222656 145.78125 338.515625 143.457031 337.746094 141.148438 C 336.980469 138.84375 336.160156 136.554688 335.28125 134.289062 C 334.402344 132.019531 333.46875 129.777344 332.480469 127.554688 C 331.492188 125.332031 330.449219 123.136719 329.355469 120.964844 C 328.257812 118.796875 327.109375 116.652344 325.910156 114.539062 C 324.707031 112.425781 323.457031 110.339844 322.152344 108.289062 C 320.851562 106.234375 319.496094 104.214844 318.097656 102.226562 C 316.695312 100.242188 315.246094 98.289062 313.746094 96.375 C 312.25 94.457031 310.707031 92.578125 309.117188 90.738281 C 307.527344 88.898438 305.894531 87.097656 304.21875 85.339844 C 302.539062 83.578125 300.820312 81.859375 299.058594 80.183594 C 297.296875 78.507812 295.496094 76.875 293.65625 75.289062 L 295.816406 72.875 C 297.699219 74.496094 299.539062 76.164062 301.34375 77.875 C 303.144531 79.585938 304.902344 81.34375 306.617188 83.140625 C 308.332031 84.9375 310.003906 86.777344 311.628906 88.660156 C 313.253906 90.539062 314.832031 92.457031 316.363281 94.414062 C 317.894531 96.375 319.375 98.367188 320.808594 100.398438 C 322.242188 102.425781 323.625 104.492188 324.957031 106.589844 C 326.289062 108.6875 327.570312 110.816406 328.796875 112.976562 C 330.027344 115.136719 331.199219 117.328125 332.320312 119.546875 C 333.441406 121.765625 334.507812 124.007812 335.519531 126.277344 C 336.527344 128.550781 337.484375 130.84375 338.382812 133.160156 C 339.28125 135.476562 340.121094 137.816406 340.90625 140.175781 C 341.6875 142.53125 342.414062 144.910156 343.082031 147.300781 C 343.75 149.695312 344.355469 152.105469 344.90625 154.527344 C 345.457031 156.953125 345.945312 159.390625 346.375 161.835938 C 346.804688 164.285156 347.175781 166.742188 347.484375 169.207031 C 347.792969 171.671875 348.042969 174.144531 348.230469 176.625 C 348.421875 179.101562 348.546875 181.582031 348.613281 184.066406 C 348.679688 186.550781 348.6875 189.035156 348.632812 191.519531 C 348.578125 194.003906 348.460938 196.488281 348.285156 198.964844 C 348.109375 201.445312 347.871094 203.917969 347.574219 206.386719 C 347.277344 208.851562 346.917969 211.3125 346.5 213.761719 C 346.082031 216.210938 345.605469 218.648438 345.066406 221.074219 C 344.53125 223.5 343.933594 225.914062 343.277344 228.3125 C 342.621094 230.707031 341.90625 233.085938 341.136719 235.449219 C 340.363281 237.8125 339.535156 240.152344 338.648438 242.476562 C 337.757812 244.796875 336.816406 247.09375 335.816406 249.371094 C 334.816406 251.644531 333.761719 253.894531 332.652344 256.121094 C 331.542969 258.34375 330.378906 260.539062 329.160156 262.703125 C 327.945312 264.871094 326.671875 267.007812 325.351562 269.109375 C 324.03125 271.214844 322.65625 273.285156 321.234375 275.324219 C 319.808594 277.359375 318.335938 279.363281 316.816406 281.328125 C 315.292969 283.292969 313.726562 285.21875 312.109375 287.105469 Z M 309.597656 284.921875 " fill-opacity="1" fill-rule="nonzero"/></g></g></g><g clip-path="url(#d0808b3409)"><g clip-path="url(#08ba976297)"><g clip-path="url(#d1352ef042)"><path fill="#fbc108" d="M 93.613281 312.9375 C 95.515625 314.453125 97.453125 315.921875 99.425781 317.34375 C 101.398438 318.761719 103.40625 320.132812 105.445312 321.457031 C 107.488281 322.777344 109.558594 324.050781 111.660156 325.273438 C 113.765625 326.492188 115.894531 327.660156 118.054688 328.777344 C 120.214844 329.894531 122.402344 330.957031 124.613281 331.96875 C 126.824219 332.976562 129.0625 333.929688 131.320312 334.832031 C 133.578125 335.730469 135.859375 336.574219 138.160156 337.363281 C 140.460938 338.152344 142.777344 338.882812 145.113281 339.558594 C 147.449219 340.234375 149.800781 340.851562 152.167969 341.410156 C 154.53125 341.96875 156.910156 342.472656 159.300781 342.914062 C 161.691406 343.359375 164.09375 343.742188 166.503906 344.070312 C 168.914062 344.394531 171.328125 344.660156 173.75 344.867188 C 176.175781 345.078125 178.601562 345.226562 181.03125 345.3125 C 183.460938 345.402344 185.890625 345.429688 188.320312 345.402344 C 190.753906 345.371094 193.183594 345.28125 195.609375 345.132812 C 198.035156 344.980469 200.457031 344.773438 202.875 344.503906 C 205.292969 344.238281 207.699219 343.910156 210.101562 343.523438 C 212.503906 343.140625 214.890625 342.695312 217.269531 342.191406 C 219.648438 341.6875 222.015625 341.128906 224.367188 340.507812 C 226.71875 339.890625 229.054688 339.214844 231.371094 338.480469 C 233.691406 337.75 235.988281 336.960938 238.269531 336.113281 C 240.550781 335.269531 242.808594 334.367188 245.042969 333.410156 C 247.277344 332.457031 249.488281 331.445312 251.675781 330.382812 C 253.863281 329.316406 256.019531 328.199219 258.152344 327.027344 C 260.285156 325.859375 262.386719 324.636719 264.457031 323.363281 C 266.527344 322.089844 268.566406 320.769531 270.574219 319.394531 C 272.582031 318.023438 274.554688 316.601562 276.492188 315.132812 C 278.429688 313.664062 280.328125 312.148438 282.191406 310.585938 C 284.054688 309.023438 285.878906 307.414062 287.664062 305.761719 C 289.445312 304.113281 291.191406 302.417969 292.890625 300.679688 C 294.59375 298.941406 296.25 297.164062 297.867188 295.347656 C 299.480469 293.527344 301.046875 291.671875 302.570312 289.777344 L 305.058594 291.851562 C 303.503906 293.789062 301.902344 295.691406 300.25 297.546875 C 298.601562 299.40625 296.910156 301.226562 295.171875 303.003906 C 293.433594 304.777344 291.652344 306.511719 289.828125 308.199219 C 288.003906 309.890625 286.140625 311.53125 284.238281 313.128906 C 282.335938 314.726562 280.394531 316.277344 278.414062 317.78125 C 276.433594 319.28125 274.417969 320.734375 272.367188 322.140625 C 270.316406 323.542969 268.234375 324.898438 266.117188 326.199219 C 264 327.5 261.851562 328.75 259.671875 329.945312 C 257.496094 331.140625 255.289062 332.285156 253.054688 333.371094 C 250.820312 334.460938 248.558594 335.496094 246.277344 336.472656 C 243.992188 337.449219 241.683594 338.371094 239.351562 339.234375 C 237.023438 340.101562 234.671875 340.90625 232.304688 341.65625 C 229.933594 342.40625 227.546875 343.097656 225.144531 343.730469 C 222.742188 344.363281 220.324219 344.9375 217.890625 345.449219 C 215.460938 345.964844 213.019531 346.417969 210.5625 346.8125 C 208.109375 347.207031 205.648438 347.542969 203.179688 347.816406 C 200.707031 348.089844 198.234375 348.300781 195.753906 348.453125 C 193.273438 348.605469 190.789062 348.699219 188.304688 348.730469 C 185.820312 348.761719 183.335938 348.730469 180.851562 348.640625 C 178.367188 348.546875 175.886719 348.398438 173.410156 348.183594 C 170.933594 347.972656 168.464844 347.699219 166.003906 347.367188 C 163.539062 347.03125 161.085938 346.640625 158.644531 346.183594 C 156.199219 345.730469 153.769531 345.21875 151.351562 344.644531 C 148.933594 344.074219 146.53125 343.441406 144.140625 342.75 C 141.753906 342.0625 139.386719 341.3125 137.035156 340.507812 C 134.683594 339.699219 132.355469 338.835938 130.046875 337.914062 C 127.738281 336.996094 125.453125 336.019531 123.191406 334.984375 C 120.933594 333.953125 118.699219 332.867188 116.492188 331.722656 C 114.285156 330.582031 112.105469 329.386719 109.957031 328.136719 C 107.808594 326.886719 105.691406 325.589844 103.605469 324.234375 C 101.519531 322.882812 99.46875 321.480469 97.453125 320.027344 C 95.4375 318.574219 93.457031 317.074219 91.515625 315.523438 Z M 93.613281 312.9375 " fill-opacity="1" fill-rule="nonzero"/></g></g></g><g clip-path="url(#af826626a5)"><g clip-path="url(#cbe5894f7c)"><g clip-path="url(#6d4a47ff27)"><path fill="#139782" d="M 65.40625 89.808594 C 63.816406 91.644531 62.269531 93.523438 60.769531 95.4375 C 59.269531 97.347656 57.816406 99.300781 56.414062 101.285156 C 55.007812 103.269531 53.652344 105.285156 52.347656 107.339844 C 51.042969 109.390625 49.789062 111.472656 48.585938 113.585938 C 47.378906 115.695312 46.230469 117.839844 45.128906 120.007812 C 44.03125 122.175781 42.988281 124.371094 41.996094 126.589844 C 41.003906 128.8125 40.066406 131.054688 39.1875 133.320312 C 38.304688 135.585938 37.480469 137.875 36.710938 140.179688 C 35.941406 142.488281 35.226562 144.808594 34.570312 147.152344 C 33.914062 149.492188 33.316406 151.847656 32.777344 154.21875 C 32.238281 156.589844 31.753906 158.972656 31.332031 161.367188 C 30.90625 163.761719 30.542969 166.164062 30.234375 168.578125 C 29.929688 170.988281 29.683594 173.40625 29.496094 175.832031 C 29.308594 178.257812 29.179688 180.683594 29.109375 183.113281 C 29.042969 185.546875 29.03125 187.976562 29.082031 190.40625 C 29.132812 192.839844 29.242188 195.265625 29.414062 197.691406 C 29.582031 200.117188 29.808594 202.539062 30.097656 204.953125 C 30.386719 207.367188 30.730469 209.773438 31.136719 212.171875 C 31.542969 214.566406 32.007812 216.953125 32.527344 219.328125 C 33.050781 221.703125 33.632812 224.0625 34.269531 226.410156 C 34.90625 228.757812 35.601562 231.085938 36.355469 233.398438 C 37.105469 235.710938 37.914062 238.003906 38.777344 240.277344 C 39.640625 242.550781 40.5625 244.800781 41.535156 247.027344 C 42.511719 249.253906 43.539062 251.457031 44.621094 253.636719 C 45.703125 255.8125 46.839844 257.960938 48.027344 260.085938 C 49.214844 262.207031 50.453125 264.296875 51.742188 266.359375 C 53.03125 268.417969 54.371094 270.449219 55.761719 272.445312 C 57.148438 274.441406 58.585938 276.398438 60.074219 278.324219 C 61.558594 280.25 63.089844 282.136719 64.667969 283.988281 C 66.246094 285.839844 67.867188 287.648438 69.53125 289.421875 C 71.199219 291.191406 72.90625 292.917969 74.660156 294.605469 C 76.410156 296.292969 78.199219 297.9375 80.03125 299.535156 L 77.855469 301.9375 C 75.984375 300.304688 74.152344 298.625 72.359375 296.902344 C 70.570312 295.179688 68.824219 293.410156 67.121094 291.601562 C 65.414062 289.792969 63.757812 287.941406 62.144531 286.054688 C 60.53125 284.164062 58.964844 282.234375 57.445312 280.265625 C 55.925781 278.300781 54.457031 276.296875 53.035156 274.257812 C 51.617188 272.21875 50.246094 270.144531 48.925781 268.039062 C 47.609375 265.933594 46.339844 263.796875 45.125 261.625 C 43.914062 259.457031 42.75 257.261719 41.644531 255.035156 C 40.539062 252.8125 39.488281 250.558594 38.492188 248.285156 C 37.492188 246.007812 36.554688 243.707031 35.671875 241.382812 C 34.785156 239.0625 33.960938 236.71875 33.191406 234.355469 C 32.421875 231.992188 31.710938 229.609375 31.058594 227.210938 C 30.40625 224.816406 29.8125 222.402344 29.28125 219.976562 C 28.746094 217.546875 28.269531 215.109375 27.855469 212.65625 C 27.441406 210.207031 27.089844 207.75 26.792969 205.28125 C 26.5 202.8125 26.265625 200.339844 26.09375 197.859375 C 25.921875 195.382812 25.808594 192.898438 25.757812 190.414062 C 25.707031 187.929688 25.714844 185.445312 25.785156 182.960938 C 25.855469 180.476562 25.988281 177.996094 26.179688 175.519531 C 26.371094 173.039062 26.625 170.570312 26.9375 168.101562 C 27.25 165.636719 27.625 163.179688 28.058594 160.734375 C 28.492188 158.285156 28.984375 155.851562 29.535156 153.429688 C 30.089844 151.003906 30.703125 148.597656 31.371094 146.203125 C 32.042969 143.8125 32.773438 141.4375 33.558594 139.078125 C 34.347656 136.722656 35.191406 134.386719 36.09375 132.070312 C 36.992188 129.753906 37.953125 127.460938 38.964844 125.191406 C 39.980469 122.921875 41.046875 120.679688 42.171875 118.464844 C 43.296875 116.246094 44.472656 114.058594 45.703125 111.898438 C 46.9375 109.742188 48.21875 107.613281 49.554688 105.519531 C 50.890625 103.421875 52.273438 101.359375 53.710938 99.332031 C 55.148438 97.304688 56.632812 95.3125 58.167969 93.355469 C 59.699219 91.402344 61.28125 89.484375 62.910156 87.605469 Z M 65.40625 89.808594 " fill-opacity="1" fill-rule="nonzero"/></g></g></g><path fill="#ffffff" d="M 171.335938 147.007812 L 195.398438 122.945312 C 195.398438 122.945312 219.457031 98.886719 243.519531 122.945312 C 267.582031 147.007812 243.519531 171.070312 243.519531 171.070312 L 211.4375 203.152344 C 211.4375 203.152344 187.375 227.210938 163.316406 203.152344 C 158.804688 198.640625 156.007812 192.644531 156.007812 192.644531 L 169.457031 179.21875 C 169.457031 179.21875 168.914062 184.6875 175.347656 191.121094 C 175.347656 191.121094 187.375 203.152344 199.40625 191.121094 L 231.488281 159.039062 C 231.488281 159.039062 243.519531 147.007812 231.488281 134.976562 C 219.457031 122.945312 207.429688 134.976562 207.429688 134.976562 L 192.472656 149.929688 C 192.472656 149.929688 185.039062 143.832031 169.832031 148.511719 Z M 171.335938 147.007812 " fill-opacity="1" fill-rule="nonzero"/><path fill="#ffffff" d="M 194.777344 219.191406 L 170.714844 243.253906 C 170.714844 243.253906 146.652344 267.3125 122.59375 243.253906 C 98.53125 219.191406 122.59375 195.128906 122.59375 195.128906 L 154.671875 163.046875 C 154.671875 163.046875 178.734375 138.988281 202.796875 163.046875 C 207.308594 167.558594 210.101562 173.554688 210.101562 173.554688 L 196.652344 186.984375 C 196.652344 186.984375 197.195312 181.511719 190.761719 175.078125 C 190.761719 175.078125 178.730469 163.046875 166.699219 175.078125 L 134.617188 207.160156 C 134.617188 207.160156 122.589844 219.191406 134.617188 231.222656 C 146.648438 243.253906 158.679688 231.222656 158.679688 231.222656 L 173.632812 216.269531 C 173.632812 216.269531 181.070312 222.367188 196.277344 217.6875 Z M 194.777344 219.191406 " fill-opacity="1" fill-rule="nonzero"/></svg>