<svg xmlns="http://www.w3.org/2000/svg" version="1.1" xmlns:xlink="http://www.w3.org/1999/xlink" width="512" height="512" x="0" y="0" viewBox="0 0 1707 1707" style="enable-background:new 0 0 512 512" xml:space="preserve" fill-rule="evenodd" class=""><g><path d="M401 1210c-13 0-22-13-19-25l99-396c1-2 75-195 268-141 25 7 15 46-11 39-153-43-213 100-219 115l-98 393c-2 9-11 15-20 15zM1305 1210c-9 0-17-6-19-15l-99-393c-5-14-65-156-215-116-26 6-36-32-10-39 190-50 262 140 263 142l100 396c2 12-6 25-20 25zM856 650h-1c-111-8-196-180-200-255-15-26-74-139-36-202 7-17 86-179 236-193h3c149 14 228 176 236 193 37 63-22 176-37 202-4 75-89 247-199 255h-2zm0-610C726 53 655 211 653 213c-30 51 42 163 42 177 0 58 77 213 161 220 85-7 162-162 162-220 0-17 72-118 40-180-1-1-73-157-202-170z" fill="#ffffff" opacity="1" data-original="#000000" class=""></path><path d="M675 410c-14 0-26-14-17-31 31-62 48-114 44-137-3-19 21-31 34-18 2 2 43 42 120 43 26 0 26 41 0 40-52-1-91-17-116-31-8 42-28 83-47 123-4 7-11 11-18 11z" fill="#ffffff" opacity="1" data-original="#000000" class=""></path><path d="M1037 410c-9 0-14-5-18-13-19-37-39-83-47-121-23 13-66 31-116 31-26 0-26-39 0-40 107-2 116-60 143-46 25 13-13 28 56 160 7 13-3 29-18 29zM856 843c-6 0-12-3-16-8L729 687c-8-11-4-111-4-131 0-26 40-26 40 0v112l107 143c10 13 0 32-16 32z" fill="#ffffff" opacity="1" data-original="#000000" class=""></path><path d="M856 843c-16 0-26-19-16-32l107-142V556c0-26 40-26 40 0 0 20 4 120-4 131L872 835c-4 5-10 8-16 8zM856 1088c-18 0-26-22-14-34l127-127V814c0-7 3-14 10-17l60-35V662c0-26 40-26 40 0v111c0 8-4 14-10 18l-60 35v110c0 5-3 10-6 14l-133 132c-4 4-9 6-14 6z" fill="#ffffff" opacity="1" data-original="#000000" class=""></path><path d="M856 1210c-11 0-20-9-20-20V823c0-26 40-26 40 0v367c0 11-9 20-20 20z" fill="#ffffff" opacity="1" data-original="#000000" class=""></path><path d="M856 1088c-5 0-10-2-14-6L710 950c-4-4-6-9-6-14V826l-60-35c-7-4-10-10-10-17V662c0-26 40-26 40 0v100l60 35c6 3 10 10 10 17v113l126 127c13 12 4 34-14 34zM1597 1381H110c-31 0-57-25-57-56v-99c0-31 26-56 57-56h1487c31 0 56 25 56 56v99c0 31-25 56-56 56zM110 1210c-9 0-17 7-17 16v99c0 9 8 16 17 16h1487c9 0 16-7 16-16v-99c0-9-7-16-16-16z" fill="#ffffff" opacity="1" data-original="#000000" class=""></path><path d="M1538 1706H174c-11 0-20-9-20-20v-325c0-26 40-26 40 0v305h1324v-305c0-26 40-26 40 0v325c0 11-9 20-20 20zM399 1210c-8 0-16-5-19-13-42-108-222-667 176-728h148c26 0 26 40 0 40H560c-79 11-138 47-173 107-113 191 29 563 31 567 5 13-5 27-19 27zm909 0c-14 0-24-14-19-27 2-4 143-376 31-567-36-60-94-96-173-107h-139c-26 0-26-40 0-40h143c397 56 217 625 175 728-3 8-10 13-18 13z" fill="#ffffff" opacity="1" data-original="#000000" class=""></path><path d="M1312 1529H400c-26 0-26-40 0-40h912c26 0 27 40 0 40z" fill="#ffffff" opacity="1" data-original="#000000" class=""></path></g></svg>